HIERARCHY
ROOT Hips
{
    OFFSET 0.0 0.0 0.0
    CHANNELS 6 Xposition Yposition Zposition Zrotation Xrotation Yrotation
    JOINT LeftUpLeg
    {
        OFFSET 13.960223090477978 0.0 0.0
        CHANNELS 3 Zrotation Xrotation Yrotation
        JOINT LeftLeg
        {
            OFFSET 0.0 0.0 -55.720430184650915
            CHANNELS 3 Zrotation Xrotation Yrotation
            JOINT LeftFoot
            {
                OFFSET 0.0 0.0 -50.74382570993595
                CHANNELS 3 Zrotation Xrotation Yrotation
                JOINT LeftToeBase
                {
                    OFFSET 0.0 -12.191070327142773 0.0
                    CHANNELS 3 Zrotation Xrotation Yrotation
                    End Site
                    {
                        OFFSET 0 0 0
                    }
                }
            }
        }
    }
    JOINT RightUpLeg
    {
        OFFSET -13.960223090477978 0.0 0.0
        CHANNELS 3 Zrotation Xrotation Yrotation
        JOINT RightLeg
        {
            OFFSET 0.0 0.0 -55.720430184650915
            CHANNELS 3 Zrotation Xrotation Yrotation
            JOINT RightFoot
            {
                OFFSET 0.0 0.0 -50.74382570993595
                CHANNELS 3 Zrotation Xrotation Yrotation
                JOINT RightToeBase
                {
                    OFFSET 0.0 -12.191070327142773 0.0
                    CHANNELS 3 Zrotation Xrotation Yrotation
                    End Site
                    {
                        OFFSET 0 0 0
                    }
                }
            }
        }
    }
    JOINT Spine
    {
        OFFSET 0.0 0.0 11.649880346113044
        CHANNELS 3 Zrotation Xrotation Yrotation
        JOINT Spine1
        {
            OFFSET 0.0 0.0 11.571320960199092
            CHANNELS 3 Zrotation Xrotation Yrotation
            JOINT Spine2
            {
                OFFSET 0.0 0.0 11.571320960199092
                CHANNELS 3 Zrotation Xrotation Yrotation
                JOINT Spine3
                {
                    OFFSET 0.0 0.0 11.571320960199087
                    CHANNELS 3 Zrotation Xrotation Yrotation
                    JOINT Spine4
                    {
                        OFFSET 0.0 0.0 11.571320960199095
                        CHANNELS 3 Zrotation Xrotation Yrotation
                        JOINT RightShoulder
                        {
                            OFFSET -23.445745861824562 0.0 0.0
                            CHANNELS 3 Zrotation Xrotation Yrotation
                            JOINT RightArm
                            {
                                OFFSET -37.670609464394666 0.0 0.0
                                CHANNELS 3 Zrotation Xrotation Yrotation
                                JOINT RightForeArm
                                {
                                    OFFSET -33.79522933680242 0.0 0.0
                                    CHANNELS 3 Zrotation Xrotation Yrotation
                                    JOINT RightHand
                                    {
                                        OFFSET -12.368936754098641 0.0 0.0
                                        CHANNELS 3 Zrotation Xrotation Yrotation
                                        End Site
                                        {
                                            OFFSET 0 0 0
                                        }
                                    }
                                }
                            }
                        }
                        JOINT LeftShoulder
                        {
                            OFFSET 23.445745861824562 0.0 0.0
                            CHANNELS 3 Zrotation Xrotation Yrotation
                            JOINT LeftArm
                            {
                                OFFSET 37.670609464394666 0.0 0.0
                                CHANNELS 3 Zrotation Xrotation Yrotation
                                JOINT LeftForeArm
                                {
                                    OFFSET 33.79522933680242 0.0 0.0
                                    CHANNELS 3 Zrotation Xrotation Yrotation
                                    JOINT LeftHand
                                    {
                                        OFFSET 12.368936754098641 0.0 0.0
                                        CHANNELS 3 Zrotation Xrotation Yrotation
                                        End Site
                                        {
                                            OFFSET 0 0 0
                                        }
                                    }
                                }
                            }
                        }
                        JOINT Neck
                        {
                            OFFSET 0.0 0.0 11.57132100931193
                            CHANNELS 3 Zrotation Xrotation Yrotation
                            JOINT Head
                            {
                                OFFSET 0.0 0.0 26.638800563146496
                                CHANNELS 3 Zrotation Xrotation Yrotation
                                End Site
                                {
                                    OFFSET 0 0 0
                                }
                            }
                        }
                    }
                }
            }
        }
    }
}
MOTION
Frames: 4
Frame Time: 0.03333333333333333
49.099044227600096 -0.8899652235209943 437.02156047821046 41.27808427011799 -79.20935440669793 38.88930892842819 -1.234481368899218 -5.070941193210849 -10.977565946393717 21.725904277302973 -13.264967051180493 25.991112408191338 -117.99772664485594 -6.3611093629270335e-15 72.02269936062514 0.0 0.0 0.0 -0.034121214013898074 -6.786378661592676 13.174664909544598 -14.821450851380396 -9.589719910243856 -22.607596983243354 97.56171339334894 1.5902773407317584e-14 -75.65371408726243 0.0 0.0 0.0 0.4017963465753205 -9.946828435427967 1.5677125303942148 0.0 0.0 0.0 0.0 0.0 0.0 0.0 0.0 0.0 0.0 0.0 0.0 147.29826431027988 14.063480480586147 -170.88489078404623 122.89163096107126 -7.107651020455456e-15 -2.468549783091149e-16 3.4338653770693935e-15 8.169092550076135 -3.4338653770693935e-15 0.0 0.0 0.0 165.1791201049131 7.808042979140954 -174.28214577286295 -34.480675104455 9.869742569825318e-15 4.727901627210182e-15 180.0 -47.69541972841117 180.0 -1.5902773407317584e-15 2.2069531490250793e-32 -1.5902773407317584e-15 -8.451845309097305 1.430349556073604e-14 1.3558794653814093e-15 2.484808344893373e-17 -5.38806921148701e-36 -2.484808344893373e-17
49.099044227600096 -0.8899652235209943 437.02156047821046 41.27808427011799 -79.20935440669793 38.88930892842819 -1.234481368899218 -5.070941193210849 -10.977565946393717 21.725904277302973 -13.264967051180493 25.991112408191338 -117.99772664485594 -6.3611093629270335e-15 72.02269936062514 0.0 0.0 0.0 -0.034121214013898074 -6.786378661592676 13.174664909544598 -14.821450851380396 -9.589719910243856 -22.607596983243354 97.56171339334894 1.5902773407317584e-14 -75.65371408726243 0.0 0.0 0.0 0.4017963465753205 -9.946828435427967 1.5677125303942148 0.0 0.0 0.0 0.0 0.0 0.0 0.0 0.0 0.0 0.0 0.0 0.0 147.29826431027988 14.063480480586147 -170.88489078404623 122.89163096107126 -7.107651020455456e-15 -2.468549783091149e-16 3.4338653770693935e-15 8.169092550076135 -3.4338653770693935e-15 0.0 0.0 0.0 165.1791201049131 7.808042979140954 -174.28214577286295 -34.480675104455 9.869742569825318e-15 4.727901627210182e-15 180.0 -47.69541972841117 180.0 -1.5902773407317584e-15 2.2069531490250793e-32 -1.5902773407317584e-15 -8.451845309097305 1.430349556073604e-14 1.3558794653814093e-15 2.484808344893373e-17 -5.38806921148701e-36 -2.484808344893373e-17
49.099044227600096 -0.8899652235209943 437.02156047821046 41.27808427011799 -79.20935440669793 38.88930892842819 -1.234481368899218 -5.070941193210849 -10.977565946393717 21.725904277302973 -13.264967051180493 25.991112408191338 -117.99772664485594 -6.3611093629270335e-15 72.02269936062514 0.0 0.0 0.0 -0.034121214013898074 -6.786378661592676 13.174664909544598 -14.821450851380396 -9.589719910243856 -22.607596983243354 97.56171339334894 1.5902773407317584e-14 -75.65371408726243 0.0 0.0 0.0 0.4017963465753205 -9.946828435427967 1.5677125303942148 0.0 0.0 0.0 0.0 0.0 0.0 0.0 0.0 0.0 0.0 0.0 0.0 147.29826431027988 14.063480480586147 -170.88489078404623 122.89163096107126 -7.107651020455456e-15 -2.468549783091149e-16 3.4338653770693935e-15 8.169092550076135 -3.4338653770693935e-15 0.0 0.0 0.0 165.1791201049131 7.808042979140954 -174.28214577286295 -34.480675104455 9.869742569825318e-15 4.727901627210182e-15 180.0 -47.69541972841117 180.0 -1.5902773407317584e-15 2.2069531490250793e-32 -1.5902773407317584e-15 -8.451845309097305 1.430349556073604e-14 1.3558794653814093e-15 2.484808344893373e-17 -5.38806921148701e-36 -2.484808344893373e-17
49.10005123615265 -0.8901254162192346 437.0195520401001 41.151353281180455 -79.22802859412103 38.7629306395764 -1.1985827776096152 -5.089680724190103 -11.052869091293909 21.684313567799073 -13.203764253988819 26.154317292010838 -119.32476308664496 1.2722218725854067e-14 67.93537301754158 0.0 0.0 0.0 -0.07186251885852345 -6.8108334159651225 13.167696906942748 -14.816677859542768 -9.584451663079813 -22.638919469000378 97.62108612231467 -6.3611093629270335e-15 -75.65935696102618 0.0 0.0 0.0 0.40278616461833633 -9.949014917436978 1.5613943192970414 0.0 0.0 -7.951386703658792e-16 0.0 0.0 -7.951386703658792e-16 0.0 0.0 -7.951386703658792e-16 0.0 0.0 -7.951386703658792e-16 147.57225000976945 12.472972133322576 -170.9440045075475 126.06806005986341 2.0638586559841294e-15 9.971396606612295e-15 -4.050517640417415e-16 7.243355187711541 6.3994761094433974e-15 0.0 0.0 0.0 165.2823044731884 7.150244709869617 -174.36013389095697 -35.03867941232641 -7.263791971131223e-15 -3.960590358205684e-15 180.0 -48.929225392162444 180.0 -1.590277340731758e-15 -2.2069531490250793e-32 1.590277340731758e-15 -8.41840759431102 -1.7660399926848046e-14 -1.6485649650677848e-15 -2.4848083448933725e-17 -5.38806921148701e-36 2.4848083448933725e-17
